<?xml version="1.0" encoding="utf-8"?>
<!-- Generator: Adobe Illustrator 18.1.1, SVG Export Plug-In . SVG Version: 6.00 Build 0)  -->
<!DOCTYPE svg PUBLIC "-//W3C//DTD SVG 1.1//EN" "http://www.w3.org/Graphics/SVG/1.1/DTD/svg11.dtd">
<svg version="1.1" id="Guides" xmlns="http://www.w3.org/2000/svg" xmlns:xlink="http://www.w3.org/1999/xlink" x="0px" y="0px"
    height="33px" width="134px"
	 viewBox="76.9 245.8 446.2 108.4" enable-background="new 76.9 245.8 446.2 108.4" xml:space="preserve">
<g>
	<g>
		<path fill="#F69B1F" d="M130.7,252c-0.1,0-0.2,0-0.4,0v4.7H128c-12.7,0-24,5.9-31.3,15v6c7.7-10.4,20.1-17.3,34.1-17.3
			c23.5,0,42.6,19.1,42.6,42.6c0,9.8-3.3,18.8-8.9,26v6.7l-0.8,0.7c-8.8,8-20.2,13.1-32.9,13.8v3.8c28.2,0,51.1-22.9,51.1-51.1
			C181.8,274.9,158.9,252,130.7,252z"/>
		<path fill="#616365" d="M128,339.5c-23.5,0-42.6-19.1-42.6-42.6c0-23.5,19.1-42.6,42.6-42.6v-8.5c-28.2,0-51.1,22.9-51.1,51.1
			s22.9,51.1,51.1,51.1c13.1,0,25-5.1,34.1-13.3v-12.5C154.3,332.7,142,339.5,128,339.5z"/>
	</g>
	<g>
		<g>
			<path fill="#616365" d="M211.9,299.3c-10.4,0-18.1-8-18.1-18.1v-0.1c0-10,7.6-18.2,18.4-18.2c6.6,0,10.6,2.2,13.9,5.4l-4.9,5.7
				c-2.7-2.5-5.5-4-9-4c-5.9,0-10.2,4.9-10.2,11v0.1c0,6,4.2,11.1,10.2,11.1c4,0,6.5-1.6,9.2-4.1l4.9,5
				C222.7,296.9,218.7,299.3,211.9,299.3z"/>
			<path fill="#616365" d="M232.5,298.7v-35.2h7.7v28.2h17.6v7H232.5z"/>
			<path fill="#616365" d="M289.9,298.7l-3.2-7.9h-14.9l-3.2,7.9h-7.9l15.1-35.5h7.1l15.1,35.5H289.9z M279.2,272.5l-4.7,11.4h9.4
				L279.2,272.5z"/>
			<path fill="#616365" d="M324.8,298.7l-7.6-11.3h-6.1v11.3h-7.7v-35.2h16.1c8.3,0,13.3,4.4,13.3,11.6v0.1c0,5.7-3.1,9.3-7.6,10.9
				l8.6,12.6H324.8z M325,275.5c0-3.3-2.3-5-6.1-5h-7.7v10.1h7.8c3.8,0,5.9-2,5.9-5L325,275.5L325,275.5z"/>
			<path fill="#616365" d="M340.1,298.7v-35.2h7.7v35.2H340.1z"/>
			<path fill="#616365" d="M372.6,270.6v28.1h-7.7v-28.1h-10.7v-7.2h29.2v7.2H372.6z"/>
			<path fill="#616365" d="M406.9,284.6v14h-7.7v-13.9l-13.5-21.3h9.1l8.4,14.2l8.6-14.2h8.8L406.9,284.6z"/>
		</g>
		<g>
			<path fill="#616365" d="M211.2,339.6c-10,0-17.3-7.9-17.3-17.9v-0.1c0-9.9,7.4-18,17.4-18c6.2,0,10,2.3,13.5,5.6l-1.9,1.9
				c-3-2.9-6.5-5.1-11.7-5.1c-8.4,0-14.7,6.8-14.7,15.6v0.1c0,8.8,6.4,15.7,14.7,15.7c5,0,8.5-1.9,12-5.4l1.7,1.7
				C221.3,337.2,217.3,339.6,211.2,339.6z"/>
			<path fill="#616365" d="M247,339.6c-10.6,0-17.5-8.4-17.5-17.9v-0.1c0-9.5,7-18,17.6-18c10.6,0,17.5,8.4,17.5,17.9c0,0,0,0,0,0.1
				C264.6,331.1,257.6,339.6,247,339.6z M261.9,321.6c0-8.6-6.3-15.7-14.9-15.7c-8.6,0-14.8,7-14.8,15.6v0.1
				c0,8.6,6.3,15.7,14.9,15.7C255.8,337.3,261.9,330.3,261.9,321.6L261.9,321.6z"/>
			<path fill="#616365" d="M300.4,339l-24.5-31v31h-2.5v-34.9h2.4l24.1,30.3v-30.3h2.5V339H300.4z"/>
			<path fill="#616365" d="M324.5,339.5c-5.6,0-9.9-1.9-14-5.6l1.7-1.9c3.8,3.5,7.4,5.2,12.5,5.2c5.2,0,8.8-2.9,8.8-6.9v-0.1
				c0-3.7-1.9-5.8-9.9-7.4c-8.4-1.7-11.8-4.5-11.8-9.8v-0.1c0-5.2,4.7-9.2,11.2-9.2c5.1,0,8.4,1.4,11.9,4.2l-1.6,2
				c-3.3-2.8-6.6-3.9-10.4-3.9c-5.1,0-8.5,2.9-8.5,6.6v0.1c0,3.7,1.9,5.9,10.2,7.6c8.1,1.6,11.5,4.5,11.5,9.6v0.1
				C336.1,335.6,331.2,339.5,324.5,339.5z"/>
			<path fill="#616365" d="M358.3,339.6c-8.4,0-14.3-5.3-14.3-15v-20.4h2.6v20.1c0,8.2,4.4,12.9,11.8,12.9c7.1,0,11.6-4.3,11.6-12.7
				v-20.4h2.6v20.1C372.6,334.2,366.8,339.6,358.3,339.6z"/>
			<path fill="#616365" d="M382.4,339v-34.9h2.6v32.5h20.5v2.4H382.4z"/>
			<path fill="#616365" d="M420.5,306.5V339h-2.6v-32.5h-12.2v-2.4h26.9v2.4H420.5z"/>
			<path fill="#616365" d="M440.8,339v-34.9h2.6V339H440.8z"/>
			<path fill="#616365" d="M481.1,339l-24.6-31v31h-2.5v-34.9h2.4l24,30.3v-30.3h2.5V339H481.1z"/>
			<path fill="#616365" d="M509.4,339.6c-11,0-17.5-8.1-17.5-17.9v-0.1c0-9.4,6.8-18,17.2-18c5.7,0,9.2,1.7,12.7,4.6l-1.7,1.9
				c-2.7-2.4-5.9-4.2-11.2-4.2c-8.5,0-14.4,7.2-14.4,15.6v0.1c0,9,5.6,15.7,14.9,15.7c4.4,0,8.6-1.8,11.1-4v-10h-11.6V321h14.1v13.5
				C520,337.2,515.1,339.6,509.4,339.6z"/>
		</g>
	</g>
</g>
</svg>
